<svg aria-hidden="true" style="position: absolute; width: 0; height: 0; overflow: hidden;" version="1.1" xmlns="http://www.w3.org/2000/svg" xmlns:xlink="http://www.w3.org/1999/xlink">
<defs>
<symbol id="icon-linkedin" viewBox="0 0 20 20">
<path d="M5 3c0 1.062-0.71 1.976-2.001 1.976-1.215 0-1.999-0.862-1.999-1.924 0-1.090 0.76-2.052 2-2.052s1.976 0.91 2 2zM1 19v-13h4v13h-4z"></path>
<path d="M7 10.444c0-1.545-0.051-2.836-0.102-3.951h3.594l0.178 1.723h0.076c0.506-0.811 1.746-2 3.822-2 2.532 0 4.432 1.695 4.432 5.342v7.442h-4v-6.861c0-1.594-0.607-2.81-2-2.81-1.062 0-1.594 0.86-1.873 1.569-0.102 0.254-0.127 0.608-0.127 0.963v7.139h-4v-8.556z"></path>
</symbol>
<symbol id="icon-phone" viewBox="0 0 24 32">
<path d="M19.635 18.487l-2.451-0.28c-0.067-0.008-0.145-0.013-0.223-0.013-0.531 0-1.012 0.215-1.36 0.564l-1.775 1.775c-2.752-1.42-4.94-3.607-6.322-6.278l-0.038-0.081 1.787-1.785c0.347-0.347 0.562-0.827 0.562-1.358 0-0.079-0.005-0.156-0.014-0.233l0.001 0.009-0.28-2.432c-0.115-0.966-0.93-1.708-1.918-1.708-0.001 0-0.002 0-0.002 0h-1.669c-1.091 0-1.997 0.907-1.929 1.997 0.511 8.24 7.101 14.821 15.332 15.333 1.091 0.067 1.997-0.84 1.997-1.931v-1.669c0-0.003 0-0.007 0-0.011 0-0.981-0.739-1.789-1.69-1.899l-0.009-0.001z"></path>
</symbol>
<symbol id="icon-email" viewBox="0 0 24 32">
<path d="M20 8h-16c-1.1 0-1.989 0.9-1.989 2l-0.011 12c0 1.1 0.9 2 2 2h16c1.1 0 2-0.9 2-2v-12c0-1.1-0.9-2-2-2zM19.6 12.251l-7.069 4.419c-0.151 0.094-0.334 0.15-0.531 0.15s-0.38-0.056-0.535-0.153l0.004 0.002-7.069-4.419c-0.252-0.15-0.418-0.422-0.418-0.731 0-0.469 0.38-0.849 0.849-0.849 0.174 0 0.337 0.053 0.471 0.143l6.697 4.187 6.7-4.191c0.132-0.088 0.294-0.141 0.468-0.141 0.469 0 0.849 0.38 0.849 0.849 0 0.31-0.166 0.581-0.414 0.729l-0.004 0.002z"></path>
</symbol>
<symbol id="icon-frame" viewBox="0 0 32 32">
<path d="M32 2.667l-32 15 10.227 3.156 15.773-12.323-12 13.488v7.345l5.735-5.576 7.267 2.243 4.999-23.333z"></path>
</symbol>
<symbol id="icon-location2" viewBox="0 0 32 32">
<path d="M16 0c-5.523 0-10 4.477-10 10 0 10 10 22 10 22s10-12 10-22c0-5.523-4.477-10-10-10zM16 16.125c-3.383 0-6.125-2.742-6.125-6.125s2.742-6.125 6.125-6.125 6.125 2.742 6.125 6.125-2.742 6.125-6.125 6.125zM12.125 10c0-2.14 1.735-3.875 3.875-3.875s3.875 1.735 3.875 3.875c0 2.14-1.735 3.875-3.875 3.875s-3.875-1.735-3.875-3.875z"></path>
</symbol>
<symbol id="icon-github" viewBox="0 0 32 32">
<path d="M16 0.395c-8.836 0-16 7.163-16 16 0 7.069 4.585 13.067 10.942 15.182 0.8 0.148 1.094-0.347 1.094-0.77 0-0.381-0.015-1.642-0.022-2.979-4.452 0.968-5.391-1.888-5.391-1.888-0.728-1.849-1.776-2.341-1.776-2.341-1.452-0.993 0.11-0.973 0.11-0.973 1.606 0.113 2.452 1.649 2.452 1.649 1.427 2.446 3.743 1.739 4.656 1.33 0.143-1.034 0.558-1.74 1.016-2.14-3.554-0.404-7.29-1.777-7.29-7.907 0-1.747 0.625-3.174 1.649-4.295-0.166-0.403-0.714-2.030 0.155-4.234 0 0 1.344-0.43 4.401 1.64 1.276-0.355 2.645-0.532 4.005-0.539 1.359 0.006 2.729 0.184 4.008 0.539 3.054-2.070 4.395-1.64 4.395-1.64 0.871 2.204 0.323 3.831 0.157 4.234 1.026 1.12 1.647 2.548 1.647 4.295 0 6.145-3.743 7.498-7.306 7.895 0.574 0.497 1.085 1.47 1.085 2.963 0 2.141-0.019 3.864-0.019 4.391 0 0.426 0.288 0.925 1.099 0.768 6.354-2.118 10.933-8.113 10.933-15.18 0-8.837-7.164-16-16-16z"></path>
</symbol>
</defs>
</svg>
